<svg id="visual" viewBox="0 0 900 450" width="100%" height="100%" xmlns="http://www.w3.org/2000/svg" xmlns:xlink="http://www.w3.org/1999/xlink" version="1.1"><path d="M0 424L7.2 422.8C14.3 421.7 28.7 419.3 43 418.3C57.3 417.3 71.7 417.7 86 418.2C100.3 418.7 114.7 419.3 128.8 417.3C143 415.3 157 410.7 171.2 406.7C185.3 402.7 199.7 399.3 214 399.5C228.3 399.7 242.7 403.3 257 405.8C271.3 408.3 285.7 409.7 300 407.3C314.3 405 328.7 399 343 393.5C357.3 388 371.7 383 386 386.7C400.3 390.3 414.7 402.7 428.8 403.3C443 404 457 393 471.2 394.3C485.3 395.7 499.7 409.3 514 413.8C528.3 418.3 542.7 413.7 557 407.5C571.3 401.3 585.7 393.7 600 388.5C614.3 383.3 628.7 380.7 643 386.7C657.3 392.7 671.7 407.3 686 414.3C700.3 421.3 714.7 420.7 728.8 420.3C743 420 757 420 771.2 416.5C785.3 413 799.7 406 814 402.2C828.3 398.3 842.7 397.7 857 400.3C871.3 403 885.7 409 892.8 412L900 415L900 451L892.8 451C885.7 451 871.3 451 857 451C842.7 451 828.3 451 814 451C799.7 451 785.3 451 771.2 451C757 451 743 451 728.8 451C714.7 451 700.3 451 686 451C671.7 451 657.3 451 643 451C628.7 451 614.3 451 600 451C585.7 451 571.3 451 557 451C542.7 451 528.3 451 514 451C499.7 451 485.3 451 471.2 451C457 451 443 451 428.8 451C414.7 451 400.3 451 386 451C371.7 451 357.3 451 343 451C328.7 451 314.3 451 300 451C285.7 451 271.3 451 257 451C242.7 451 228.3 451 214 451C199.7 451 185.3 451 171.2 451C157 451 143 451 128.8 451C114.7 451 100.3 451 86 451C71.7 451 57.3 451 43 451C28.7 451 14.3 451 7.2 451L0 451Z" fill="#F76C5E" stroke-linecap="round" stroke-linejoin="miter"></path></svg>